<svg version="1.1" id="Layer_1" xmlns="http://www.w3.org/2000/svg" xmlns:xlink="http://www.w3.org/1999/xlink" x="0px" y="0px"
	 width="100%" viewBox="0 0 1200 1200" enable-background="new 0 0 1200 1200" xml:space="preserve">
<path fill="#FFFFFF" opacity="1.000000" stroke="none" 
	d="
M579.000000,1201.000000 
	C386.000000,1201.000000 193.500000,1201.000000 1.000000,1201.000000 
	C1.000000,801.000000 1.000000,401.000000 1.000000,1.000000 
	C401.000000,1.000000 801.000000,1.000000 1201.000000,1.000000 
	C1201.000000,401.000000 1201.000000,801.000000 1201.000000,1201.000000 
	C993.833313,1201.000000 786.666687,1201.000000 579.000000,1201.000000 
M955.333435,825.075134 
	C966.834961,842.330872 985.781372,846.649231 1003.749084,840.965088 
	C1021.613037,835.313721 1031.562622,818.968994 1030.112671,798.777771 
	C1028.073853,770.384277 1025.673706,742.016418 1023.690796,713.619263 
	C1020.988281,674.915283 1018.405884,636.201904 1016.014587,597.477600 
	C1014.249329,568.890808 1012.690918,540.288147 1011.408936,511.676025 
	C1010.881836,499.911987 1011.321716,488.104645 1011.321716,476.626923 
	C1017.870728,473.691010 1025.507690,471.081512 1032.309570,467.059875 
	C1050.165771,456.502319 1062.973999,441.348694 1063.727661,420.096039 
	C1064.902100,386.980164 1064.188965,353.793671 1064.056274,320.638000 
	C1064.029053,313.840424 1060.107056,309.069427 1053.863525,306.526001 
	C1047.779297,304.047394 1042.096680,305.102753 1037.133667,309.432465 
	C1032.520874,313.456573 1031.071289,318.756897 1031.081787,324.683258 
	C1031.121460,347.011017 1031.097534,369.338867 1031.097534,391.666687 
	C1031.097534,406.534821 1030.182617,407.417267 1015.167419,407.029541 
	C1009.360779,406.879608 1006.371948,403.940308 1006.219849,398.007172 
	C1006.108826,393.677734 1006.198853,389.343201 1006.197083,385.010925 
	C1006.188354,364.016235 1006.349121,343.019562 1006.106262,322.027588 
	C1005.958130,309.222290 993.175232,301.433075 982.110718,307.211700 
	C975.732788,310.542664 973.133850,316.256165 973.139160,323.319458 
	C973.157715,348.146667 973.109802,372.973938 973.178162,397.800964 
	C973.190735,402.361542 971.576050,405.711395 967.025085,406.839966 
	C958.475708,408.960052 950.970276,407.045380 949.121887,402.214722 
	C948.320923,400.121460 948.239319,397.662842 948.233704,395.369202 
	C948.174072,371.042023 948.300659,346.714020 948.151794,322.387604 
	C948.073059,309.516815 935.717896,301.594452 924.461121,307.079193 
	C917.521484,310.460541 915.131165,316.579407 915.137146,323.961365 
	C915.161011,353.620697 915.088562,383.280273 915.209961,412.939117 
	C915.228271,417.401672 915.638977,421.963104 916.630859,426.304535 
	C922.002563,449.816132 937.684204,464.083008 959.192749,472.914062 
	C962.658997,474.337250 966.276550,475.391937 969.729004,476.584106 
	C969.147583,489.192902 968.635071,501.335876 968.018188,513.473572 
	C966.614990,541.081360 965.391174,568.700989 963.674194,596.289612 
	C960.922974,640.495605 957.936829,684.687683 954.839966,728.870972 
	C953.222046,751.953674 951.208008,775.009338 949.267517,798.068359 
	C948.475403,807.481750 950.150085,816.278992 955.333435,825.075134 
M156.381027,497.499939 
	C156.381027,533.586792 156.381027,569.673645 156.381027,605.769409 
	C157.913559,605.955566 158.563400,606.103577 159.213257,606.103699 
	C208.364700,606.116577 257.516235,606.146606 306.667297,606.007568 
	C308.509125,606.002380 310.734589,604.743896 312.119904,603.391846 
	C318.912994,596.761963 325.600555,590.012146 332.041931,583.042786 
	C333.545959,581.415466 334.688568,578.782043 334.731293,576.586914 
	C334.980774,563.762390 334.964111,550.928528 334.739990,538.103088 
	C334.704498,536.071350 333.635712,533.617432 332.229797,532.127625 
	C326.666321,526.231873 320.778748,520.641968 314.740540,514.670837 
	C320.842987,508.686340 326.565491,503.338715 331.925568,497.649689 
	C333.444916,496.037079 334.682220,493.443817 334.726013,491.273590 
	C334.984802,478.449402 334.963837,465.615448 334.740875,452.789917 
	C334.705322,450.745880 333.651550,448.285736 332.252014,446.773682 
	C325.919342,439.931793 319.173737,433.472229 312.835144,426.635498 
	C310.471680,424.086365 308.056274,423.144867 304.604889,423.152618 
	C257.119690,423.259277 209.634171,423.224548 162.148743,423.224548 
	C160.517456,423.224548 158.886169,423.224579 156.381332,423.224579 
	C156.381332,447.951782 156.381332,472.225861 156.381027,497.499939 
M156.453262,736.499512 
	C156.453262,760.084351 156.453262,783.669189 156.453262,807.255859 
	C157.911392,807.451965 158.559174,807.616638 159.206543,807.615112 
	C208.027115,807.497864 256.847839,807.401428 305.667542,807.126953 
	C307.844269,807.114746 310.520172,806.006042 312.095703,804.500183 
	C318.953186,797.946289 325.606537,791.164734 332.054352,784.206726 
	C333.551453,782.591064 334.690399,779.972107 334.732727,777.790344 
	C334.981445,764.972168 334.966217,752.144897 334.745026,739.325745 
	C334.709869,737.287231 333.658752,734.830627 332.259796,733.328796 
	C326.963837,727.643494 321.331421,722.271606 315.702240,716.660217 
	C321.409698,710.992126 326.870178,705.842529 331.958618,700.348450 
	C333.469666,698.716980 334.709717,696.131592 334.751556,693.957947 
	C334.998352,681.139099 334.962891,668.310913 334.732880,655.491028 
	C334.695984,653.435120 333.694946,650.947449 332.296936,649.441833 
	C325.837372,642.484985 319.223297,635.653320 312.331421,629.128723 
	C310.540436,627.433228 307.551300,626.134827 305.107147,626.125977 
	C257.278229,625.952576 209.448563,625.994812 161.619049,626.006897 
	C160.016510,626.007263 158.414001,626.153076 156.426453,626.249817 
	C156.426453,662.908447 156.426453,699.204041 156.453262,736.499512 
M734.167786,553.499939 
	C734.167786,571.238464 734.167786,588.976929 734.167786,606.563354 
	C786.558167,606.563354 838.121643,606.563354 889.613037,606.563354 
	C889.613037,593.560486 889.613037,580.963684 889.613037,567.746582 
	C853.960571,567.746582 818.591370,567.746582 783.309692,567.746582 
	C783.309692,556.164917 783.309692,545.210510 783.309692,533.679077 
	C804.549316,533.679077 825.556702,533.679077 846.597961,533.679077 
	C846.597961,520.372375 846.597961,507.650574 846.597961,494.448975 
	C825.297546,494.448975 804.363159,494.448975 783.383423,494.448975 
	C783.383423,484.050018 783.383423,474.140045 783.383423,463.809326 
	C818.945068,463.809326 854.193604,463.809326 889.554199,463.809326 
	C889.554199,450.666687 889.554199,437.953003 889.554199,425.319519 
	C837.639709,425.319519 786.072815,425.319519 734.214233,425.319519 
	C734.214233,467.946198 734.214233,510.223267 734.167786,553.499939 
M833.500000,769.029785 
	C816.757568,769.029785 800.015137,769.029785 783.403198,769.029785 
	C783.403198,757.198608 783.403198,746.116943 783.403198,734.666260 
	C804.660522,734.666260 825.580994,734.666260 846.675232,734.666260 
	C846.675232,721.561340 846.675232,708.835938 846.675232,695.473022 
	C825.354370,695.473022 804.321472,695.473022 783.447876,695.473022 
	C783.447876,684.928162 783.447876,675.026733 783.447876,664.739746 
	C819.078064,664.739746 854.325134,664.739746 889.531067,664.739746 
	C889.531067,651.621277 889.531067,638.904846 889.531067,626.363770 
	C837.604187,626.363770 786.051086,626.363770 734.438538,626.363770 
	C734.438538,686.970581 734.438538,747.211121 734.438538,807.616211 
	C786.342590,807.616211 838.011230,807.616211 889.629028,807.616211 
	C889.629028,794.635376 889.629028,782.042114 889.629028,769.029785 
	C871.073242,769.029785 852.786621,769.029785 833.500000,769.029785 
M440.281219,460.756897 
	C436.135071,467.235474 431.988922,473.714050 427.553406,480.644745 
	C415.911011,462.772980 404.668671,445.681946 393.657562,428.443237 
	C391.890137,425.676178 390.047394,424.748016 386.852325,424.804382 
	C375.693756,425.001251 364.529572,424.880554 353.367523,424.880524 
	C346.464569,424.880524 339.561646,424.880524 331.870941,424.880524 
	C333.108765,426.703278 333.814301,427.777252 334.554382,428.826904 
	C356.132355,459.431061 377.753387,490.005096 399.208771,520.694946 
	C400.700989,522.829468 401.672516,525.815979 401.692749,528.415527 
	C401.879272,552.404114 401.802856,576.394836 401.802917,600.384888 
	C401.802948,602.157898 401.802917,603.930908 401.802917,605.900085 
	C418.306427,605.900085 434.224884,605.900085 450.654480,605.900085 
	C450.654480,604.064453 450.653931,602.443054 450.654541,600.821655 
	C450.663666,576.555908 450.606903,552.289734 450.783264,528.025208 
	C450.801086,525.571838 451.683075,522.752441 453.080292,520.738647 
	C468.259399,498.860992 483.627563,477.114624 498.931427,455.323517 
	C505.875824,445.435394 512.791687,435.527252 520.243713,424.880707 
	C518.073425,424.880707 516.811157,424.880737 515.548828,424.880737 
	C499.555450,424.880585 483.560486,424.997742 467.569946,424.784729 
	C464.232483,424.740265 462.513184,425.962860 460.856659,428.617432 
	C454.250427,439.203827 447.440887,449.663391 440.281219,460.756897 
M627.499878,606.120117 
	C634.239563,606.120117 640.979248,606.120117 648.124268,606.120117 
	C648.124268,558.885925 648.124268,512.491272 648.124268,465.581116 
	C668.114502,465.581116 687.671143,465.581116 707.332153,465.581116 
	C707.332153,451.808136 707.332153,438.556244 707.332153,425.214691 
	C651.182495,425.214691 595.320374,425.214691 539.389160,425.214691 
	C539.389160,438.789032 539.389160,452.026337 539.389160,465.869324 
	C559.375305,465.869324 579.079895,465.869324 599.205566,465.869324 
	C599.205566,512.872742 599.205566,559.269897 599.205566,606.120178 
	C608.589294,606.120178 617.544556,606.120178 627.499878,606.120117 
M707.204895,654.485901 
	C707.204895,645.091736 707.204895,635.697510 707.204895,626.290894 
	C650.759766,626.290894 595.024902,626.290894 539.383850,626.290894 
	C539.383850,639.962463 539.383850,653.336304 539.383850,667.069397 
	C559.387817,667.069397 578.983154,667.069397 599.148071,667.069397 
	C599.148071,713.977783 599.148071,760.519897 599.148071,806.969604 
	C615.507080,806.969604 631.289307,806.969604 647.546143,806.969604 
	C647.546143,760.288391 647.546143,713.870911 647.546143,666.898560 
	C667.581055,666.898560 687.147827,666.898560 707.195435,666.898560 
	C707.195435,662.728149 707.195435,659.105042 707.204895,654.485901 
M401.777740,746.500061 
	C401.777740,766.590515 401.777740,786.680908 401.777740,806.848877 
	C418.196136,806.848877 434.053772,806.848877 449.943298,806.848877 
	C449.943298,746.444946 449.943298,686.425476 449.943298,626.331543 
	C433.779510,626.331543 417.897003,626.331543 401.784576,626.331543 
	C401.784576,666.275085 401.784576,705.887512 401.777740,746.500061 
z"/>
<path fill="#E52B4B" opacity="1.000000" stroke="none" 
	d="
M955.158203,824.753906 
	C950.150085,816.278992 948.475403,807.481750 949.267517,798.068359 
	C951.208008,775.009338 953.222046,751.953674 954.839966,728.870972 
	C957.936829,684.687683 960.922974,640.495605 963.674194,596.289612 
	C965.391174,568.700989 966.614990,541.081360 968.018188,513.473572 
	C968.635071,501.335876 969.147583,489.192902 969.729004,476.584106 
	C966.276550,475.391937 962.658997,474.337250 959.192749,472.914062 
	C937.684204,464.083008 922.002563,449.816132 916.630859,426.304535 
	C915.638977,421.963104 915.228271,417.401672 915.209961,412.939117 
	C915.088562,383.280273 915.161011,353.620697 915.137146,323.961365 
	C915.131165,316.579407 917.521484,310.460541 924.461121,307.079193 
	C935.717896,301.594452 948.073059,309.516815 948.151794,322.387604 
	C948.300659,346.714020 948.174072,371.042023 948.233704,395.369202 
	C948.239319,397.662842 948.320923,400.121460 949.121887,402.214722 
	C950.970276,407.045380 958.475708,408.960052 967.025085,406.839966 
	C971.576050,405.711395 973.190735,402.361542 973.178162,397.800964 
	C973.109802,372.973938 973.157715,348.146667 973.139160,323.319458 
	C973.133850,316.256165 975.732788,310.542664 982.110718,307.211700 
	C993.175232,301.433075 1005.958130,309.222290 1006.106262,322.027588 
	C1006.349121,343.019562 1006.188354,364.016235 1006.197083,385.010925 
	C1006.198853,389.343201 1006.108826,393.677734 1006.219849,398.007172 
	C1006.371948,403.940308 1009.360779,406.879608 1015.167419,407.029541 
	C1030.182617,407.417267 1031.097534,406.534821 1031.097534,391.666687 
	C1031.097534,369.338867 1031.121460,347.011017 1031.081787,324.683258 
	C1031.071289,318.756897 1032.520874,313.456573 1037.133667,309.432465 
	C1042.096680,305.102753 1047.779297,304.047394 1053.863525,306.526001 
	C1060.107056,309.069427 1064.029053,313.840424 1064.056274,320.638000 
	C1064.188965,353.793671 1064.902100,386.980164 1063.727661,420.096039 
	C1062.973999,441.348694 1050.165771,456.502319 1032.309570,467.059875 
	C1025.507690,471.081512 1017.870728,473.691010 1011.321716,476.626923 
	C1011.321716,488.104645 1010.881836,499.911987 1011.408936,511.676025 
	C1012.690918,540.288147 1014.249329,568.890808 1016.014587,597.477600 
	C1018.405884,636.201904 1020.988281,674.915283 1023.690796,713.619263 
	C1025.673706,742.016418 1028.073853,770.384277 1030.112671,798.777771 
	C1031.562622,818.968994 1021.613037,835.313721 1003.749084,840.965088 
	C985.781372,846.649231 966.834961,842.330872 955.158203,824.753906 
z"/>
<path fill="#E52B4C" opacity="1.000000" stroke="none" 
	d="
M156.381180,496.999939 
	C156.381332,472.225861 156.381332,447.951782 156.381332,423.224579 
	C158.886169,423.224579 160.517456,423.224548 162.148743,423.224548 
	C209.634171,423.224548 257.119690,423.259277 304.604889,423.152618 
	C308.056274,423.144867 310.471680,424.086365 312.835144,426.635498 
	C319.173737,433.472229 325.919342,439.931793 332.252014,446.773682 
	C333.651550,448.285736 334.705322,450.745880 334.740875,452.789917 
	C334.963837,465.615448 334.984802,478.449402 334.726013,491.273590 
	C334.682220,493.443817 333.444916,496.037079 331.925568,497.649689 
	C326.565491,503.338715 320.842987,508.686340 314.740540,514.670837 
	C320.778748,520.641968 326.666321,526.231873 332.229797,532.127625 
	C333.635712,533.617432 334.704498,536.071350 334.739990,538.103088 
	C334.964111,550.928528 334.980774,563.762390 334.731293,576.586914 
	C334.688568,578.782043 333.545959,581.415466 332.041931,583.042786 
	C325.600555,590.012146 318.912994,596.761963 312.119904,603.391846 
	C310.734589,604.743896 308.509125,606.002380 306.667297,606.007568 
	C257.516235,606.146606 208.364700,606.116577 159.213257,606.103699 
	C158.563400,606.103577 157.913559,605.955566 156.381027,605.769409 
	C156.381027,569.673645 156.381027,533.586792 156.381180,496.999939 
M270.356506,495.152008 
	C272.101929,495.053680 273.847351,494.955353 275.935730,494.837677 
	C275.935730,485.958679 275.712585,477.652771 276.027679,469.367310 
	C276.190857,465.076508 274.616547,464.044067 270.587219,464.079315 
	C250.622955,464.253815 230.656418,464.163361 210.690689,464.183838 
	C209.237686,464.185333 207.784821,464.326263 206.228546,464.407806 
	C206.228546,474.756836 206.228546,484.796692 206.228546,495.152100 
	C227.502502,495.152100 248.446259,495.152100 270.356506,495.152008 
M231.500000,534.066956 
	C223.068100,534.066956 214.636215,534.066956 206.256866,534.066956 
	C206.256866,544.774475 206.256866,554.834290 206.256866,565.146484 
	C228.580200,565.146484 250.547058,565.118347 272.513641,565.183472 
	C275.130768,565.191223 276.010345,564.216248 275.971100,561.652100 
	C275.858917,554.325867 275.692535,546.986023 276.023712,539.673035 
	C276.220093,535.336243 274.954407,533.851379 270.469604,533.951294 
	C257.818481,534.233276 245.157242,534.060547 231.500000,534.066956 
z"/>
<path fill="#612B7F" opacity="1.000000" stroke="none" 
	d="
M156.439850,735.999573 
	C156.426453,699.204041 156.426453,662.908447 156.426453,626.249817 
	C158.414001,626.153076 160.016510,626.007263 161.619049,626.006897 
	C209.448563,625.994812 257.278229,625.952576 305.107147,626.125977 
	C307.551300,626.134827 310.540436,627.433228 312.331421,629.128723 
	C319.223297,635.653320 325.837372,642.484985 332.296936,649.441833 
	C333.694946,650.947449 334.695984,653.435120 334.732880,655.491028 
	C334.962891,668.310913 334.998352,681.139099 334.751556,693.957947 
	C334.709717,696.131592 333.469666,698.716980 331.958618,700.348450 
	C326.870178,705.842529 321.409698,710.992126 315.702240,716.660217 
	C321.331421,722.271606 326.963837,727.643494 332.259796,733.328796 
	C333.658752,734.830627 334.709869,737.287231 334.745026,739.325745 
	C334.966217,752.144897 334.981445,764.972168 334.732727,777.790344 
	C334.690399,779.972107 333.551453,782.591064 332.054352,784.206726 
	C325.606537,791.164734 318.953186,797.946289 312.095703,804.500183 
	C310.520172,806.006042 307.844269,807.114746 305.667542,807.126953 
	C256.847839,807.401428 208.027115,807.497864 159.206543,807.615112 
	C158.559174,807.616638 157.911392,807.451965 156.453262,807.255859 
	C156.453262,783.669189 156.453262,760.084351 156.439850,735.999573 
M247.500595,665.670410 
	C233.791595,665.670410 220.082611,665.670410 206.137390,665.670410 
	C206.137390,676.168457 206.137390,686.080505 206.137390,696.029602 
	C206.689468,696.216370 207.150497,696.508118 207.612045,696.508972 
	C229.228714,696.548157 250.845505,696.534058 272.461975,696.610901 
	C275.484039,696.621643 276.005951,695.066467 275.975891,692.519104 
	C275.887695,685.037048 275.761658,677.546814 276.023254,670.072876 
	C276.151428,666.410828 274.675873,665.555237 271.382416,665.632202 
	C263.758423,665.810547 256.128296,665.726379 247.500595,665.670410 
M207.756821,767.922913 
	C228.744919,767.928040 249.734116,767.823059 270.720215,768.030701 
	C274.952087,768.072449 276.201019,766.746826 276.019958,762.633911 
	C275.719940,755.817688 275.712585,748.968323 276.022461,742.152954 
	C276.210419,738.019470 274.927917,736.748291 270.725250,736.791199 
	C250.572098,736.996887 230.415680,736.877686 210.260437,736.896362 
	C208.842758,736.897644 207.425262,737.080078 205.902405,737.185547 
	C205.902405,744.517761 205.809265,751.345276 205.943222,758.168335 
	C206.006516,761.391357 206.504974,764.605835 207.756821,767.922913 
z"/>
<path fill="#E52A4B" opacity="1.000000" stroke="none" 
	d="
M734.191040,553.000122 
	C734.214233,510.223267 734.214233,467.946198 734.214233,425.319519 
	C786.072815,425.319519 837.639709,425.319519 889.554199,425.319519 
	C889.554199,437.953003 889.554199,450.666687 889.554199,463.809326 
	C854.193604,463.809326 818.945068,463.809326 783.383423,463.809326 
	C783.383423,474.140045 783.383423,484.050018 783.383423,494.448975 
	C804.363159,494.448975 825.297546,494.448975 846.597961,494.448975 
	C846.597961,507.650574 846.597961,520.372375 846.597961,533.679077 
	C825.556702,533.679077 804.549316,533.679077 783.309692,533.679077 
	C783.309692,545.210510 783.309692,556.164917 783.309692,567.746582 
	C818.591370,567.746582 853.960571,567.746582 889.613037,567.746582 
	C889.613037,580.963684 889.613037,593.560486 889.613037,606.563354 
	C838.121643,606.563354 786.558167,606.563354 734.167786,606.563354 
	C734.167786,588.976929 734.167786,571.238464 734.191040,553.000122 
z"/>
<path fill="#612B7F" opacity="1.000000" stroke="none" 
	d="
M834.000000,769.029785 
	C852.786621,769.029785 871.073242,769.029785 889.629028,769.029785 
	C889.629028,782.042114 889.629028,794.635376 889.629028,807.616211 
	C838.011230,807.616211 786.342590,807.616211 734.438538,807.616211 
	C734.438538,747.211121 734.438538,686.970581 734.438538,626.363770 
	C786.051086,626.363770 837.604187,626.363770 889.531067,626.363770 
	C889.531067,638.904846 889.531067,651.621277 889.531067,664.739746 
	C854.325134,664.739746 819.078064,664.739746 783.447876,664.739746 
	C783.447876,675.026733 783.447876,684.928162 783.447876,695.473022 
	C804.321472,695.473022 825.354370,695.473022 846.675232,695.473022 
	C846.675232,708.835938 846.675232,721.561340 846.675232,734.666260 
	C825.580994,734.666260 804.660522,734.666260 783.403198,734.666260 
	C783.403198,746.116943 783.403198,757.198608 783.403198,769.029785 
	C800.015137,769.029785 816.757568,769.029785 834.000000,769.029785 
z"/>
<path fill="#E52A4B" opacity="1.000000" stroke="none" 
	d="
M440.493927,460.463379 
	C447.440887,449.663391 454.250427,439.203827 460.856659,428.617432 
	C462.513184,425.962860 464.232483,424.740265 467.569946,424.784729 
	C483.560486,424.997742 499.555450,424.880585 515.548828,424.880737 
	C516.811157,424.880737 518.073425,424.880707 520.243713,424.880707 
	C512.791687,435.527252 505.875824,445.435394 498.931427,455.323517 
	C483.627563,477.114624 468.259399,498.860992 453.080292,520.738647 
	C451.683075,522.752441 450.801086,525.571838 450.783264,528.025208 
	C450.606903,552.289734 450.663666,576.555908 450.654541,600.821655 
	C450.653931,602.443054 450.654480,604.064453 450.654480,605.900085 
	C434.224884,605.900085 418.306427,605.900085 401.802917,605.900085 
	C401.802917,603.930908 401.802948,602.157898 401.802917,600.384888 
	C401.802856,576.394836 401.879272,552.404114 401.692749,528.415527 
	C401.672516,525.815979 400.700989,522.829468 399.208771,520.694946 
	C377.753387,490.005096 356.132355,459.431061 334.554382,428.826904 
	C333.814301,427.777252 333.108765,426.703278 331.870941,424.880524 
	C339.561646,424.880524 346.464569,424.880524 353.367523,424.880524 
	C364.529572,424.880554 375.693756,425.001251 386.852325,424.804382 
	C390.047394,424.748016 391.890137,425.676178 393.657562,428.443237 
	C404.668671,445.681946 415.911011,462.772980 427.553406,480.644745 
	C431.988922,473.714050 436.135071,467.235474 440.493927,460.463379 
z"/>
<path fill="#E52B4C" opacity="1.000000" stroke="none" 
	d="
M626.999878,606.120117 
	C617.544556,606.120178 608.589294,606.120178 599.205566,606.120178 
	C599.205566,559.269897 599.205566,512.872742 599.205566,465.869324 
	C579.079895,465.869324 559.375305,465.869324 539.389160,465.869324 
	C539.389160,452.026337 539.389160,438.789032 539.389160,425.214691 
	C595.320374,425.214691 651.182495,425.214691 707.332153,425.214691 
	C707.332153,438.556244 707.332153,451.808136 707.332153,465.581116 
	C687.671143,465.581116 668.114502,465.581116 648.124268,465.581116 
	C648.124268,512.491272 648.124268,558.885925 648.124268,606.120117 
	C640.979248,606.120117 634.239563,606.120117 626.999878,606.120117 
z"/>
<path fill="#612B7F" opacity="1.000000" stroke="none" 
	d="
M707.200195,654.983887 
	C707.195435,659.105042 707.195435,662.728149 707.195435,666.898560 
	C687.147827,666.898560 667.581055,666.898560 647.546143,666.898560 
	C647.546143,713.870911 647.546143,760.288391 647.546143,806.969604 
	C631.289307,806.969604 615.507080,806.969604 599.148071,806.969604 
	C599.148071,760.519897 599.148071,713.977783 599.148071,667.069397 
	C578.983154,667.069397 559.387817,667.069397 539.383850,667.069397 
	C539.383850,653.336304 539.383850,639.962463 539.383850,626.290894 
	C595.024902,626.290894 650.759766,626.290894 707.204895,626.290894 
	C707.204895,635.697510 707.204895,645.091736 707.200195,654.983887 
z"/>
<path fill="#602A7E" opacity="1.000000" stroke="none" 
	d="
M401.781158,746.000000 
	C401.784576,705.887512 401.784576,666.275085 401.784576,626.331543 
	C417.897003,626.331543 433.779510,626.331543 449.943298,626.331543 
	C449.943298,686.425476 449.943298,746.444946 449.943298,806.848877 
	C434.053772,806.848877 418.196136,806.848877 401.777740,806.848877 
	C401.777740,786.680908 401.777740,766.590515 401.781158,746.000000 
z"/>
<path fill="#FFFDFD" opacity="1.000000" stroke="none" 
	d="
M269.873260,495.152039 
	C248.446259,495.152100 227.502502,495.152100 206.228546,495.152100 
	C206.228546,484.796692 206.228546,474.756836 206.228546,464.407806 
	C207.784821,464.326263 209.237686,464.185333 210.690689,464.183838 
	C230.656418,464.163361 250.622955,464.253815 270.587219,464.079315 
	C274.616547,464.044067 276.190857,465.076508 276.027679,469.367310 
	C275.712585,477.652771 275.935730,485.958679 275.935730,494.837677 
	C273.847351,494.955353 272.101929,495.053680 269.873260,495.152039 
z"/>
<path fill="#FFFEFE" opacity="1.000000" stroke="none" 
	d="
M232.000000,534.067017 
	C245.157242,534.060547 257.818481,534.233276 270.469604,533.951294 
	C274.954407,533.851379 276.220093,535.336243 276.023712,539.673035 
	C275.692535,546.986023 275.858917,554.325867 275.971100,561.652100 
	C276.010345,564.216248 275.130768,565.191223 272.513641,565.183472 
	C250.547058,565.118347 228.580200,565.146484 206.256866,565.146484 
	C206.256866,554.834290 206.256866,544.774475 206.256866,534.066956 
	C214.636215,534.066956 223.068100,534.066956 232.000000,534.067017 
z"/>
<path fill="#FCFBFD" opacity="1.000000" stroke="none" 
	d="
M248.000610,665.709534 
	C256.128296,665.726379 263.758423,665.810547 271.382416,665.632202 
	C274.675873,665.555237 276.151428,666.410828 276.023254,670.072876 
	C275.761658,677.546814 275.887695,685.037048 275.975891,692.519104 
	C276.005951,695.066467 275.484039,696.621643 272.461975,696.610901 
	C250.845505,696.534058 229.228714,696.548157 207.612045,696.508972 
	C207.150497,696.508118 206.689468,696.216370 206.137390,696.029602 
	C206.137390,686.080505 206.137390,676.168457 206.137390,665.670410 
	C220.082611,665.670410 233.791595,665.670410 248.000610,665.709534 
z"/>
<path fill="#FFFEFE" opacity="1.000000" stroke="none" 
	d="
M207.281540,767.873535 
	C206.504974,764.605835 206.006516,761.391357 205.943222,758.168335 
	C205.809265,751.345276 205.902405,744.517761 205.902405,737.185547 
	C207.425262,737.080078 208.842758,736.897644 210.260437,736.896362 
	C230.415680,736.877686 250.572098,736.996887 270.725250,736.791199 
	C274.927917,736.748291 276.210419,738.019470 276.022461,742.152954 
	C275.712585,748.968323 275.719940,755.817688 276.019958,762.633911 
	C276.201019,766.746826 274.952087,768.072449 270.720215,768.030701 
	C249.734116,767.823059 228.744919,767.928040 207.281540,767.873535 
z"/>
</svg>